Coordinates
version=1
nRows=13
nColumns=40
inDegrees=yes

Units are S.I. units (second, meters, Newtons, ...)
Angles are in degrees.

endheader
time	pelvis_tilt	pelvis_list	pelvis_rotation	pelvis_tx	pelvis_ty	pelvis_tz	hip_flexion_r	hip_adduction_r	hip_rotation_r	knee_angle_r	knee_angle_r_beta	ankle_angle_r	subtalar_angle_r	mtp_angle_r	hip_flexion_l	hip_adduction_l	hip_rotation_l	knee_angle_l	knee_angle_l_beta	ankle_angle_l	subtalar_angle_l	mtp_angle_l	lumbar_extension	lumbar_bending	lumbar_rotation	arm_flex_r	arm_add_r	arm_rot_r	elbow_flex_r	pro_sup_r	wrist_flex_r	wrist_dev_r	arm_flex_l	arm_add_l	arm_rot_l	elbow_flex_l	pro_sup_l	wrist_flex_l	wrist_dev_l
     41.22500000	     -3.24231837	     -6.98583015	     -0.88911285	      0.97920141	      0.92143506	      0.47363476	     20.00824497	      5.77975352	    -11.48217788	     19.89618181	     19.89618181	      5.27680827	     -4.37775735	     -3.32032715	      9.34025308	    -12.21422175	     -3.94138787	     49.05951568	     49.05951568	      7.33245560	    -17.08312942	    -13.05189895	     -7.97237040	      8.69389838	      2.46867611	      3.02328633	    -12.68314656	     -5.30051715	     33.07283029	     46.17883856	      0.00000000	      0.00000000	     16.01736634	     -9.11995156	     -0.72655126	     54.90298001	     46.73861631	      0.00000000	      0.00000000
     41.23685714	     -3.06995438	     -7.09994263	     -0.49831007	      0.97996543	      0.92218304	      0.47501144	     19.23566168	      5.91970562	    -11.80049023	     19.83569292	     19.83569292	      5.79682856	     -4.28131973	     -3.50172319	     11.44567708	    -12.74509059	     -2.99514389	     53.12564272	     53.12564272	      4.96692193	    -17.31630383	    -12.15520212	     -8.00000176	      8.75264652	      2.01150859	      4.70369392	    -12.89004811	     -5.15198139	     34.46254673	     46.12032090	      0.00000000	      0.00000000	     15.07242148	     -8.97518077	     -0.48061119	     52.36963769	     46.67981260	      0.00000000	      0.00000000
     41.24871429	     -2.93072800	     -7.14538471	     -0.14858905	      0.98051493	      0.92288216	      0.47628220	     18.49367612	      5.98176892	    -12.15535315	     19.74870982	     19.74870982	      6.30659847	     -3.96117625	     -3.71187682	     13.64567285	    -13.03421799	     -1.87116312	     57.05995706	     57.05995706	      3.39191830	    -17.07619347	     -9.28080417	     -7.98328896	      8.73583216	      2.33539241	      5.64284951	    -13.52176466	     -4.39087321	     36.67420206	     45.98077667	      0.00000000	      0.00000000	     15.21842062	     -8.14772305	     -0.38263162	     47.83013985	     46.62024572	      0.00000000	      0.00000000
     41.26057143	     -2.78428755	     -7.23971185	      0.15136407	      0.98092361	      0.92350050	      0.47767657	     17.72898899	      6.15270626	    -12.38182976	     19.61018724	     19.61018724	      6.75237432	     -3.84403014	     -3.84149614	     15.70502100	    -13.39695538	     -0.86728866	     60.44229328	     60.44229328	      1.24387238	    -16.97271306	     -8.63161386	     -8.07065498	      8.72603618	      2.25791057	      7.33378904	    -13.84644246	     -4.45180465	     37.81629071	     45.94990742	      0.00000000	      0.00000000	     14.04083923	     -7.92317787	     -0.20811085	     46.49622189	     46.57744905	      0.00000000	      0.00000000
     41.27242857	     -2.74374444	     -7.10779427	      0.44954573	      0.98107375	      0.92403556	      0.47881199	     17.12645864	      6.00968984	    -12.75929086	     19.57416029	     19.57416029	      7.29348479	     -3.30954442	     -4.04612466	     17.96433107	    -13.30254898	      0.25438438	     63.74430274	     63.74430274	      1.17273920	    -15.88426730	     -3.73914227	     -7.94915227	      8.50153007	      2.48112421	      7.93852834	    -14.59403909	     -3.40965813	     41.47115163	     45.74440348	      0.00000000	      0.00000000	     14.46756079	     -7.19303414	     -0.37109726	     40.82063235	     46.53471089	      0.00000000	      0.00000000
     41.28428571	     -2.70622717	     -7.09025158	      0.70250023	      0.98105534	      0.92455330	      0.48016268	     16.49397124	      6.08117344	    -12.91398284	     19.41563842	     19.41563842	      7.70707544	     -3.18815770	     -4.13450069	     19.97948490	    -13.40797641	      1.19098584	     66.23484274	     66.23484274	     -0.07445632	    -15.42547892	     -3.17359854	     -7.93028472	      8.34897060	      2.18254542	      9.74192806	    -14.73830942	     -3.52969416	     42.96873698	     45.70395593	      0.00000000	      0.00000000	     13.16835280	     -7.21934830	     -0.29532051	     39.35616907	     46.49670776	      0.00000000	      0.00000000
     41.29614286	     -2.58755760	     -6.88659071	      0.88473067	      0.98087711	      0.92527328	      0.48137416	     15.81709590	      5.92460026	    -13.07257777	     19.35708921	     19.35708921	      8.17170642	     -2.82275279	     -4.20981860	     21.80102787	    -13.24935565	      1.94811078	     68.31669612	     68.31669612	     -0.18042072	    -14.63642060	     -1.01303370	     -8.04329400	      7.99393426	      2.00972109	     11.20907124	    -15.04786589	     -3.28448767	     45.80817887	     45.59180833	      0.00000000	      0.00000000	     12.53093939	     -7.08338138	     -0.37947652	     36.16306367	     46.46741591	      0.00000000	      0.00000000
     41.30800000	     -2.57983090	     -6.76187001	      1.05774956	      0.98044424	      0.92584626	      0.48264776	     15.21764947	      5.88685263	    -13.22548820	     19.15893553	     19.15893553	      8.57485684	     -2.56986166	     -4.13231308	     23.70460975	    -13.17010785	      2.64629340	     69.97541417	     69.97541417	      0.30988789	    -13.88247291	      1.22198638	     -8.05985229	      7.72373394	      2.33841031	     12.12260870	    -15.65342255	     -3.07900897	     49.06276911	     45.46765576	      0.00000000	      0.00000000	     12.21025191	     -6.70521819	     -0.64379376	     32.91797810	     46.46267104	      0.00000000	      0.00000000
     41.31985714	     -2.59208209	     -6.61910929	      1.22567280	      0.97996434	      0.92652413	      0.48389442	     14.58795871	      5.86140193	    -13.21213100	     18.85864005	     18.85864005	      8.97149910	     -2.40364494	     -4.13133202	     25.42516538	    -13.03576419	      3.25526211	     70.88835907	     70.88835907	      0.25002236	    -13.65208734	      1.58623552	     -8.02665793	      7.43862773	      2.17615468	     13.87356114	    -15.73093398	     -3.30825502	     50.98971216	     45.41858050	      0.00000000	      0.00000000	     11.03405307	     -6.77860619	     -0.69399292	     31.40547612	     46.44027899	      0.00000000	      0.00000000
     41.33171429	     -2.58538333	     -6.45439662	      1.37477397	      0.97930830	      0.92733766	      0.48505659	     13.92209579	      5.81503780	    -13.23092185	     18.49652732	     18.49652732	      9.27693456	     -2.21339213	     -4.07304196	     26.98551624	    -12.84819438	      3.72519099	     71.22736722	     71.22736722	      0.45526221	    -13.81289169	      1.95596665	     -8.08150183	      7.13132293	      2.02029737	     15.60973801	    -15.78516365	     -3.51943420	     53.17358437	     45.35969816	      0.00000000	      0.00000000	      9.88946289	     -6.86784981	     -0.72899665	     29.84604882	     46.41926412	      0.00000000	      0.00000000
     41.34357143	     -2.55834652	     -6.24678256	      1.46157298	      0.97856632	      0.92819547	      0.48614802	     13.26386853	      5.70103985	    -13.28270219	     18.19795007	     18.19795007	      9.65397324	     -1.83408445	     -3.88159705	     28.41051009	    -12.66814442	      3.96314259	     71.07238981	     71.07238981	      1.20196838	    -13.98410738	      3.22056501	     -8.23551475	      6.79576693	      2.77251792	     16.00984681	    -16.60497133	     -3.77244119	     57.77283144	     45.21935262	      0.00000000	      0.00000000	      9.70376893	     -6.53408614	     -1.04200866	     27.05000140	     46.44174899	      0.00000000	      0.00000000
     41.35542857	     -2.56388110	     -6.07692561	      1.59717875	      0.97778101	      0.92911701	      0.48711108	     12.50445869	      5.68273742	    -13.21617357	     17.60176806	     17.60176806	      9.85737229	     -1.70617970	     -3.74568750	     29.67663006	    -12.46547448	      4.17128207	     70.22224809	     70.22224809	      1.58037067	    -14.79341483	      3.50690452	     -8.30451797	      6.49463851	      2.59309086	     17.92028869	    -16.48771249	     -4.19422571	     59.63060297	     45.18380654	      0.00000000	      0.00000000	      8.42480458	     -6.71303266	     -1.07533480	     26.04485412	     46.41870124	      0.00000000	      0.00000000
     41.36728571	     -2.59100679	     -5.90993669	      1.70218906	      0.97693082	      0.92997220	      0.48796578	     11.78506427	      5.65387445	    -13.16294810	     17.03374489	     17.03374489	     10.06326341	     -1.52981116	     -3.64559827	     30.81214869	    -12.32077372	      4.19977910	     68.81390662	     68.81390662	      2.00659882	    -15.63623941	      3.88495714	     -8.33596044	      6.21664789	      2.61712940	     19.75643732	    -16.50201416	     -4.52639033	     61.49363453	     45.14325661	      0.00000000	      0.00000000	      7.22669904	     -6.83060552	     -1.08666248	     25.23755265	     46.39583705	      0.00000000	      0.00000000
